<?xml version="1.0" encoding="UTF-8" standalone="no"?>
<!DOCTYPE svg PUBLIC "-//W3C//DTD SVG 1.1//EN"
 "http://www.w3.org/Graphics/SVG/1.1/DTD/svg11.dtd">
<!-- Generated by graphviz version 12.0.0 (20240704.0754)
 -->
<!-- Pages: 1 -->
<svg width="1464pt" height="238pt"
 viewBox="0.00 0.00 1463.88 238.00" xmlns="http://www.w3.org/2000/svg" xmlns:xlink="http://www.w3.org/1999/xlink">
<g id="graph0" class="graph" transform="scale(1 1) rotate(0) translate(4 234)">
<polygon fill="white" stroke="none" points="-4,4 -4,-234 1459.88,-234 1459.88,4 -4,4"/>
<!-- 48 -->
<g id="node1" class="node">
<title>48</title>
<polygon fill="none" stroke="black" points="0,-193.5 0,-229.5 134,-229.5 134,-193.5 0,-193.5"/>
<text text-anchor="middle" x="33.12" y="-206.7" font-family="Times,serif" font-size="14.00">data 0.24</text>
<polyline fill="none" stroke="black" points="66.25,-194 66.25,-229.5"/>
<text text-anchor="middle" x="100.12" y="-206.7" font-family="Times,serif" font-size="14.00">grad 1.00</text>
</g>
<!-- 53* -->
<g id="node7" class="node">
<title>53*</title>
<ellipse fill="none" stroke="black" cx="197" cy="-183.5" rx="27" ry="18"/>
<text text-anchor="middle" x="197" y="-178.45" font-family="Times,serif" font-size="14.00">*</text>
</g>
<!-- 48&#45;&gt;53* -->
<g id="edge17" class="edge">
<title>48&#45;&gt;53*</title>
<path fill="none" stroke="black" d="M134.25,-197.01C143.02,-195.09 151.73,-193.18 159.73,-191.43"/>
<polygon fill="black" stroke="black" points="160.36,-194.88 169.38,-189.32 158.87,-188.04 160.36,-194.88"/>
</g>
<!-- 49 -->
<g id="node2" class="node">
<title>49</title>
<polygon fill="none" stroke="black" points="260,-55.5 260,-91.5 398.5,-91.5 398.5,-55.5 260,-55.5"/>
<text text-anchor="middle" x="293.12" y="-68.7" font-family="Times,serif" font-size="14.00">data 0.07</text>
<polyline fill="none" stroke="black" points="326.25,-56 326.25,-91.5"/>
<text text-anchor="middle" x="362.38" y="-68.7" font-family="Times,serif" font-size="14.00">grad &#45;2.00</text>
</g>
<!-- 56* -->
<g id="node12" class="node">
<title>56*</title>
<ellipse fill="none" stroke="black" cx="461.5" cy="-73.5" rx="27" ry="18"/>
<text text-anchor="middle" x="461.5" y="-68.45" font-family="Times,serif" font-size="14.00">*</text>
</g>
<!-- 49&#45;&gt;56* -->
<g id="edge15" class="edge">
<title>49&#45;&gt;56*</title>
<path fill="none" stroke="black" d="M398.81,-73.5C407.09,-73.5 415.3,-73.5 422.9,-73.5"/>
<polygon fill="black" stroke="black" points="422.75,-77 432.75,-73.5 422.75,-70 422.75,-77"/>
</g>
<!-- 50 -->
<g id="node3" class="node">
<title>50</title>
<polygon fill="none" stroke="black" points="789,-27.5 789,-63.5 923,-63.5 923,-27.5 789,-27.5"/>
<text text-anchor="middle" x="822.12" y="-40.7" font-family="Times,serif" font-size="14.00">data 0.00</text>
<polyline fill="none" stroke="black" points="855.25,-28 855.25,-63.5"/>
<text text-anchor="middle" x="889.12" y="-40.7" font-family="Times,serif" font-size="14.00">grad 1.00</text>
</g>
<!-- 58+ -->
<g id="node16" class="node">
<title>58+</title>
<ellipse fill="none" stroke="black" cx="986" cy="-72.5" rx="27" ry="18"/>
<text text-anchor="middle" x="986" y="-67.45" font-family="Times,serif" font-size="14.00">+</text>
</g>
<!-- 50&#45;&gt;58+ -->
<g id="edge12" class="edge">
<title>50&#45;&gt;58+</title>
<path fill="none" stroke="black" d="M923.25,-59.47C932.02,-61.32 940.73,-63.16 948.73,-64.85"/>
<polygon fill="black" stroke="black" points="947.87,-68.25 958.38,-66.88 949.32,-61.4 947.87,-68.25"/>
</g>
<!-- 51 -->
<g id="node4" class="node">
<title>51</title>
<polygon fill="none" stroke="black" points="0,-138.5 0,-174.5 134,-174.5 134,-138.5 0,-138.5"/>
<text text-anchor="middle" x="33.12" y="-151.7" font-family="Times,serif" font-size="14.00">data 1.00</text>
<polyline fill="none" stroke="black" points="66.25,-139 66.25,-174.5"/>
<text text-anchor="middle" x="100.12" y="-151.7" font-family="Times,serif" font-size="14.00">grad 0.24</text>
</g>
<!-- 51&#45;&gt;53* -->
<g id="edge10" class="edge">
<title>51&#45;&gt;53*</title>
<path fill="none" stroke="black" d="M134.25,-170.47C143.02,-172.32 151.73,-174.16 159.73,-175.85"/>
<polygon fill="black" stroke="black" points="158.87,-179.25 169.38,-177.88 160.32,-172.4 158.87,-179.25"/>
</g>
<!-- 52 -->
<g id="node5" class="node">
<title>52</title>
<polygon fill="none" stroke="black" points="260,-0.5 260,-36.5 398.5,-36.5 398.5,-0.5 260,-0.5"/>
<text text-anchor="middle" x="295.38" y="-13.7" font-family="Times,serif" font-size="14.00">data &#45;2.00</text>
<polyline fill="none" stroke="black" points="330.75,-1 330.75,-36.5"/>
<text text-anchor="middle" x="364.62" y="-13.7" font-family="Times,serif" font-size="14.00">grad 0.07</text>
</g>
<!-- 52&#45;&gt;56* -->
<g id="edge16" class="edge">
<title>52&#45;&gt;56*</title>
<path fill="none" stroke="black" d="M375.46,-36.89C383.16,-40.07 391.07,-43.36 398.5,-46.5 408.16,-50.59 418.64,-55.11 428.17,-59.27"/>
<polygon fill="black" stroke="black" points="426.5,-62.36 437.07,-63.16 429.31,-55.94 426.5,-62.36"/>
</g>
<!-- 53 -->
<g id="node6" class="node">
<title>53</title>
<polygon fill="none" stroke="black" points="262.25,-165.5 262.25,-201.5 396.25,-201.5 396.25,-165.5 262.25,-165.5"/>
<text text-anchor="middle" x="295.38" y="-178.7" font-family="Times,serif" font-size="14.00">data 0.24</text>
<polyline fill="none" stroke="black" points="328.5,-166 328.5,-201.5"/>
<text text-anchor="middle" x="362.38" y="-178.7" font-family="Times,serif" font-size="14.00">grad 1.00</text>
</g>
<!-- 55+ -->
<g id="node10" class="node">
<title>55+</title>
<ellipse fill="none" stroke="black" cx="461.5" cy="-128.5" rx="27" ry="18"/>
<text text-anchor="middle" x="461.5" y="-123.45" font-family="Times,serif" font-size="14.00">+</text>
</g>
<!-- 53&#45;&gt;55+ -->
<g id="edge13" class="edge">
<title>53&#45;&gt;55+</title>
<path fill="none" stroke="black" d="M377.73,-165.05C384.72,-162.24 391.81,-159.33 398.5,-156.5 408.3,-152.35 418.88,-147.66 428.48,-143.31"/>
<polygon fill="black" stroke="black" points="429.78,-146.56 437.43,-139.23 426.88,-140.19 429.78,-146.56"/>
</g>
<!-- 53*&#45;&gt;53 -->
<g id="edge1" class="edge">
<title>53*&#45;&gt;53</title>
<path fill="none" stroke="black" d="M224.36,-183.5C232.13,-183.5 241.05,-183.5 250.34,-183.5"/>
<polygon fill="black" stroke="black" points="250.28,-187 260.28,-183.5 250.28,-180 250.28,-187"/>
</g>
<!-- 54 -->
<g id="node8" class="node">
<title>54</title>
<polygon fill="none" stroke="black" points="262.25,-110.5 262.25,-146.5 396.25,-146.5 396.25,-110.5 262.25,-110.5"/>
<text text-anchor="middle" x="295.38" y="-123.7" font-family="Times,serif" font-size="14.00">data 0.00</text>
<polyline fill="none" stroke="black" points="328.5,-111 328.5,-146.5"/>
<text text-anchor="middle" x="362.38" y="-123.7" font-family="Times,serif" font-size="14.00">grad 1.00</text>
</g>
<!-- 54&#45;&gt;55+ -->
<g id="edge8" class="edge">
<title>54&#45;&gt;55+</title>
<path fill="none" stroke="black" d="M396.52,-128.5C405.47,-128.5 414.39,-128.5 422.61,-128.5"/>
<polygon fill="black" stroke="black" points="422.55,-132 432.55,-128.5 422.55,-125 422.55,-132"/>
</g>
<!-- 55 -->
<g id="node9" class="node">
<title>55</title>
<polygon fill="none" stroke="black" points="526.75,-110.5 526.75,-146.5 660.75,-146.5 660.75,-110.5 526.75,-110.5"/>
<text text-anchor="middle" x="559.88" y="-123.7" font-family="Times,serif" font-size="14.00">data 0.24</text>
<polyline fill="none" stroke="black" points="593,-111 593,-146.5"/>
<text text-anchor="middle" x="626.88" y="-123.7" font-family="Times,serif" font-size="14.00">grad 1.00</text>
</g>
<!-- 57+ -->
<g id="node14" class="node">
<title>57+</title>
<ellipse fill="none" stroke="black" cx="726" cy="-100.5" rx="27" ry="18"/>
<text text-anchor="middle" x="726" y="-95.45" font-family="Times,serif" font-size="14.00">+</text>
</g>
<!-- 55&#45;&gt;57+ -->
<g id="edge7" class="edge">
<title>55&#45;&gt;57+</title>
<path fill="none" stroke="black" d="M661.02,-114.25C670.52,-112.21 680,-110.17 688.63,-108.32"/>
<polygon fill="black" stroke="black" points="689.28,-111.76 698.32,-106.24 687.81,-104.92 689.28,-111.76"/>
</g>
<!-- 55+&#45;&gt;55 -->
<g id="edge2" class="edge">
<title>55+&#45;&gt;55</title>
<path fill="none" stroke="black" d="M488.86,-128.5C496.63,-128.5 505.55,-128.5 514.84,-128.5"/>
<polygon fill="black" stroke="black" points="514.78,-132 524.78,-128.5 514.78,-125 514.78,-132"/>
</g>
<!-- 56 -->
<g id="node11" class="node">
<title>56</title>
<polygon fill="none" stroke="black" points="524.5,-55.5 524.5,-91.5 663,-91.5 663,-55.5 524.5,-55.5"/>
<text text-anchor="middle" x="559.88" y="-68.7" font-family="Times,serif" font-size="14.00">data &#45;0.13</text>
<polyline fill="none" stroke="black" points="595.25,-56 595.25,-91.5"/>
<text text-anchor="middle" x="629.12" y="-68.7" font-family="Times,serif" font-size="14.00">grad 1.00</text>
</g>
<!-- 56&#45;&gt;57+ -->
<g id="edge14" class="edge">
<title>56&#45;&gt;57+</title>
<path fill="none" stroke="black" d="M663.31,-87.71C672.04,-89.52 680.68,-91.31 688.62,-92.96"/>
<polygon fill="black" stroke="black" points="687.68,-96.34 698.18,-94.94 689.1,-89.48 687.68,-96.34"/>
</g>
<!-- 56*&#45;&gt;56 -->
<g id="edge3" class="edge">
<title>56*&#45;&gt;56</title>
<path fill="none" stroke="black" d="M488.86,-73.5C496.04,-73.5 504.22,-73.5 512.75,-73.5"/>
<polygon fill="black" stroke="black" points="512.61,-77 522.61,-73.5 512.61,-70 512.61,-77"/>
</g>
<!-- 57 -->
<g id="node13" class="node">
<title>57</title>
<polygon fill="none" stroke="black" points="789,-82.5 789,-118.5 923,-118.5 923,-82.5 789,-82.5"/>
<text text-anchor="middle" x="822.12" y="-95.7" font-family="Times,serif" font-size="14.00">data 0.10</text>
<polyline fill="none" stroke="black" points="855.25,-83 855.25,-118.5"/>
<text text-anchor="middle" x="889.12" y="-95.7" font-family="Times,serif" font-size="14.00">grad 1.00</text>
</g>
<!-- 57&#45;&gt;58+ -->
<g id="edge11" class="edge">
<title>57&#45;&gt;58+</title>
<path fill="none" stroke="black" d="M923.25,-86.01C932.02,-84.09 940.73,-82.18 948.73,-80.43"/>
<polygon fill="black" stroke="black" points="949.36,-83.88 958.38,-78.32 947.87,-77.04 949.36,-83.88"/>
</g>
<!-- 57+&#45;&gt;57 -->
<g id="edge4" class="edge">
<title>57+&#45;&gt;57</title>
<path fill="none" stroke="black" d="M753.21,-100.5C760.43,-100.5 768.65,-100.5 777.22,-100.5"/>
<polygon fill="black" stroke="black" points="777.12,-104 787.12,-100.5 777.12,-97 777.12,-104"/>
</g>
<!-- 58 -->
<g id="node15" class="node">
<title>58</title>
<polygon fill="none" stroke="black" points="1049,-54.5 1049,-90.5 1183,-90.5 1183,-54.5 1049,-54.5"/>
<text text-anchor="middle" x="1082.12" y="-67.7" font-family="Times,serif" font-size="14.00">data 0.10</text>
<polyline fill="none" stroke="black" points="1115.25,-55 1115.25,-90.5"/>
<text text-anchor="middle" x="1149.12" y="-67.7" font-family="Times,serif" font-size="14.00">grad 1.00</text>
</g>
<!-- 59ReLU -->
<g id="node18" class="node">
<title>59ReLU</title>
<ellipse fill="none" stroke="black" cx="1252.44" cy="-72.5" rx="33.44" ry="18"/>
<text text-anchor="middle" x="1252.44" y="-67.45" font-family="Times,serif" font-size="14.00">ReLU</text>
</g>
<!-- 58&#45;&gt;59ReLU -->
<g id="edge9" class="edge">
<title>58&#45;&gt;59ReLU</title>
<path fill="none" stroke="black" d="M1183.43,-72.5C1191.6,-72.5 1199.79,-72.5 1207.51,-72.5"/>
<polygon fill="black" stroke="black" points="1207.29,-76 1217.29,-72.5 1207.29,-69 1207.29,-76"/>
</g>
<!-- 58+&#45;&gt;58 -->
<g id="edge5" class="edge">
<title>58+&#45;&gt;58</title>
<path fill="none" stroke="black" d="M1013.21,-72.5C1020.43,-72.5 1028.65,-72.5 1037.22,-72.5"/>
<polygon fill="black" stroke="black" points="1037.12,-76 1047.12,-72.5 1037.12,-69 1037.12,-76"/>
</g>
<!-- 59 -->
<g id="node17" class="node">
<title>59</title>
<polygon fill="none" stroke="black" points="1321.88,-54.5 1321.88,-90.5 1455.88,-90.5 1455.88,-54.5 1321.88,-54.5"/>
<text text-anchor="middle" x="1355" y="-67.7" font-family="Times,serif" font-size="14.00">data 0.10</text>
<polyline fill="none" stroke="black" points="1388.13,-55 1388.13,-90.5"/>
<text text-anchor="middle" x="1422" y="-67.7" font-family="Times,serif" font-size="14.00">grad 1.00</text>
</g>
<!-- 59ReLU&#45;&gt;59 -->
<g id="edge6" class="edge">
<title>59ReLU&#45;&gt;59</title>
<path fill="none" stroke="black" d="M1286.33,-72.5C1293.65,-72.5 1301.71,-72.5 1310,-72.5"/>
<polygon fill="black" stroke="black" points="1309.87,-76 1319.87,-72.5 1309.87,-69 1309.87,-76"/>
</g>
</g>
</svg>
